:FULLY-SPECIFIED
:FORCE-ALL-JOINTS-BE-3DOF
:DEGREES
453
root 10.7964 17.4459 27.7263 5.28635 1.04106 1.42785
lfemur -18.6198 3.58876 -27.4772
ltibia 26.5705 0 0
lfoot -13.4294 4.87442 0
ltoes 0.486532 0 0
rfemur -21.3524 -1.78844 18.2715
rtibia 64.2958 0 0
rfoot -10.5709 -8.39184 0
rtoes -19.4858 0 0
lowerback -5.064 -1.3861 -2.14297
upperback -1.61201 -1.76553 1.63984
thorax 1.30514 -0.88407 2.77884
lowerneck -20.9959 -3.77919 -11.3912
upperneck 24.4194 -4.4558 10.3925
head 12.0141 -1.7429 5.12829
lclavicle 2.34489e-15 -7.27405e-15 0
lhumerus -24.5369 -13.3108 89.5569
lradius 21.2166 0 0
lwrist -3.75696 0 0
lhand -11.647 -23.7318 0
lfingers 7.12502 0 0
lthumb 14.397 5.74708 0
rclavicle 2.34489e-15 -7.27405e-15 0
rhumerus -45.537 10.7521 -88.2453
rradius 35.0027 0 0
rwrist -13.6301 0 0
rhand -33.1996 -26.6167 0
rfingers 7.12502 0 0
rthumb -6.40686 -56.4969 0
454
root 10.8076 17.4333 27.9115 5.06652 1.38348 1.58396
lfemur -17.6087 3.5485 -27.6184
ltibia 26.5734 0 0
lfoot -14.0928 4.69124 0
ltoes 1.01972 0 0
rfemur -22.8362 -1.57812 18.157
rtibia 63.6022 0 0
rfoot -12.4033 -8.46946 0
rtoes -18.8591 0 0
lowerback -4.95525 -1.72064 -2.38673
upperback -1.39366 -2.20289 1.71015
thorax 1.50903 -1.10856 2.95911
lowerneck -21.2555 -3.60391 -11.2111
upperneck 24.4758 -4.23568 10.3693
head 12.0524 -1.62439 5.12859
lclavicle -4.37328e-15 -1.04859e-14 0
lhumerus -22.9747 -14.5107 89.2426
lradius 21.6916 0 0
lwrist -2.9959 0 0
lhand -12.0857 -23.8647 0
lfingers 7.12502 0 0
lthumb 13.9743 5.64374 0
rclavicle -4.37328e-15 -1.04859e-14 0
rhumerus -45.4709 10.9016 -88.0739
rradius 35.5101 0 0
rwrist -14.4368 0 0
rhand -32.6287 -27.8584 0
rfingers 7.12502 0 0
rthumb -5.85563 -57.7535 0
455
root 10.8162 17.4218 28.0597 4.87975 1.65908 1.72507
lfemur -16.7854 3.53533 -27.7516
ltibia 26.578 0 0
lfoot -14.6155 4.53048 0
ltoes 1.47024 0 0
rfemur -23.9845 -1.41229 18.0398
rtibia 63.0135 0 0
rfoot -13.8645 -8.52666 0
rtoes -18.1883 0 0
lowerback -4.87087 -1.9898 -2.60569
upperback -1.22236 -2.55368 1.7638
thorax 1.67059 -1.28847 3.11401
lowerneck -21.4241 -3.45752 -11.0823
upperneck 24.5087 -4.05647 10.3708
head 12.0714 -1.52826 5.1395
lclavicle -1.10928e-14 -1.36646e-14 0
lhumerus -21.7561 -15.4913 88.9851
lradius 22.0736 0 0
lwrist -2.36562 0 0
lhand -12.4739 -23.9827 0
lfingers 7.12502 0 0
lthumb 13.6003 5.55201 0
rclavicle -1.10928e-14 -1.36646e-14 0
rhumerus -45.4292 11.0447 -87.9556
rradius 35.9039 0 0
rwrist -15.1151 0 0
rhand -32.0416 -29.0901 0
rfingers 7.12502 0 0
rthumb -5.28882 -59.0005 0
456
root 10.8199 17.4148 28.1313 4.7726 1.79192 1.79861
lfemur -16.3667 3.55113 -27.8244
ltibia 26.5848 0 0
lfoot -14.8642 4.44147 0
ltoes 1.68899 0 0
rfemur -24.52 -1.32872 17.9798
rtibia 62.7499 0 0
rfoot -14.6285 -8.55664 0
rtoes -17.6955 0 0
lowerback -4.82707 -2.12561 -2.73095
upperback -1.13332 -2.73013 1.79359
thorax 1.75383 -1.37889 3.20349
lowerneck -21.4926 -3.37879 -11.0259
upperneck 24.5141 -3.96397 10.3905
head 12.074 -1.47777 5.15392
lclavicle -1.63947e-14 -1.64016e-14 0
lhumerus -21.1634 -16.017 88.8637
lradius 22.2456 0 0
lwrist -2.05181 0 0
lhand -12.7063 -24.0581 0
lfingers 7.12502 0 0
lthumb 13.3763 5.49241 0
rclavicle -1.63947e-14 -1.64016e-14 0
rhumerus -45.3975 11.1499 -87.9171
rradius 36.0821 0 0
rwrist -15.4702 0 0
rhand -31.5613 -30.0735 0
rfingers 7.12502 0 0
rthumb -4.82513 -59.9967 0
457
root 10.8166 17.4157 28.0867 4.79162 1.70604 1.75197
lfemur -16.5693 3.59777 -27.7847
ltibia 26.5944 0 0
lfoot -14.7058 4.47352 0
ltoes 1.5269 0 0
rfemur -24.1651 -1.36515 18.0369
rtibia 63.0314 0 0
rfoot -14.3694 -8.55259 0
rtoes -17.6029 0 0
lowerback -4.84004 -2.06008 -2.69364
upperback -1.16171 -2.64446 1.79234
thorax 1.72272 -1.33488 3.18753
lowerneck -21.4521 -3.40652 -11.0627
upperneck 24.4881 -4.00395 10.4216
head 12.0632 -1.49618 5.16479
lclavicle -1.88597e-14 -1.82882e-14 0
lhumerus -21.4787 -15.8522 88.9576
lradius 22.0905 0 0
lwrist -2.24018 0 0
lhand -12.6778 -24.0634 0
lfingers 7.12502 0 0
lthumb 13.4038 5.48541 0
rclavicle -1.88597e-14 -1.82882e-14 0
rhumerus -45.3615 11.1858 -87.9854
rradius 35.9427 0 0
rwrist -15.3071 0 0
rhand -31.3108 -30.5705 0
rfingers 7.12502 0 0
rthumb -4.58327 -60.5009 0
458
root 10.8261 17.4094 28.2359 4.69022 1.99248 1.92638
lfemur -15.8233 3.49672 -27.942
ltibia 26.5312 0 0
lfoot -15.1968 4.3399 0
ltoes 2.05776 0 0
rfemur -25.2589 -1.22595 17.8152
rtibia 62.0385 0 0
rfoot -15.2845 -8.58345 0
rtoes -17.4486 0 0
lowerback -4.80155 -2.28759 -2.87074
upperback -1.05364 -2.93982 1.80065
thorax 1.84442 -1.48678 3.27324
lowerneck -21.5315 -3.29982 -10.9652
upperneck 24.5376 -3.86502 10.3715
head 12.076 -1.42961 5.15387
lclavicle -1.5695e-14 -1.48279e-14 0
lhumerus -20.4539 -16.4833 88.6298
lradius 22.5957 0 0
lwrist -1.56058 0 0
lhand -12.8873 -24.0929 0
lfingers 7.12502 0 0
lthumb 13.2019 5.46936 0
rclavicle -1.5695e-14 -1.48279e-14 0
rhumerus -45.462 11.1467 -87.8102
rradius 36.3621 0 0
rwrist -15.9165 0 0
rhand -31.5739 -30.0011 0
rfingers 7.12502 0 0
rthumb -4.83721 -59.922 0
459
root 10.838 17.4029 28.4252 4.59011 2.35968 2.16708
lfemur -14.8902 3.34451 -28.1581
ltibia 26.4035 0 0
lfoot -15.7882 4.17638 0
ltoes 2.75753 0 0
rfemur -26.587 -1.05437 17.477
rtibia 60.5696 0 0
rfoot -16.1982 -8.61869 0
rtoes -17.3499 0 0
lowerback -4.77673 -2.5585 -3.09077
upperback -0.941042 -3.29028 1.79148
thorax 1.98722 -1.66737 3.35908
lowerneck -21.5747 -3.17977 -10.8639
upperneck 24.5954 -3.70745 10.301
head 12.082 -1.35797 5.13752
lclavicle -8.70096e-15 -8.27533e-15 0
lhumerus -19.2555 -17.1404 88.1757
lradius 23.2893 0 0
lwrist -0.659971 0 0
lhand -13.1047 -24.1043 0
lfingers 7.12502 0 0
lthumb 12.9923 5.4713 0
rclavicle -8.70096e-15 -8.27533e-15 0
rhumerus -45.6471 11.0368 -87.5786
rradius 36.8883 0 0
rwrist -16.6734 0 0
rhand -32.107 -28.812 0
rfingers 7.12502 0 0
rthumb -5.35185 -58.714 0
460
root 10.85 17.397 28.6152 4.50453 2.73115 2.42304
lfemur -13.9715 3.17948 -28.3895
ltibia 26.2707 0 0
lfoot -16.3765 4.01193 0
ltoes 3.49369 0 0
rfemur -27.8972 -0.892358 17.1055
rtibia 59.0075 0 0
rfoot -17.001 -8.64226 0
rtoes -17.3081 0 0
lowerback -4.76132 -2.82195 -3.31148
upperback -0.844798 -3.63039 1.77125
thorax 2.11856 -1.84259 3.4342
lowerneck -21.5832 -3.06479 -10.7746
upperneck 24.6544 -3.55559 10.2255
head 12.0828 -1.29156 5.12022
lclavicle 9.32006e-17 -3.9755e-16 0
lhumerus -18.1074 -17.735 87.7058
lradius 24.0113 0 0
lwrist 0.258397 0 0
lhand -13.2957 -24.0992 0
lfingers 7.12502 0 0
lthumb 12.8082 5.48792 0
rclavicle 9.32006e-17 -3.9755e-16 0
rhumerus -45.8709 10.8952 -87.3399
rradius 37.4205 0 0
rwrist -17.4317 0 0
rhand -32.8101 -27.2584 0
rfingers 7.12502 0 0
rthumb -6.03053 -57.1367 0
461
root 10.8599 17.3923 28.7664 4.44673 3.03039 2.64321
lfemur -13.2683 3.03994 -28.5927
ltibia 26.1921 0 0
lfoot -16.8584 3.87552 0
ltoes 4.13371 0 0
rfemur -28.9374 -0.78186 16.7844
rtibia 57.7348 0 0
rfoot -17.5833 -8.63812 0
rtoes -17.325 0 0
lowerback -4.75104 -3.02708 -3.49062
upperback -0.785804 -3.89471 1.74633
thorax 2.20583 -1.97839 3.48773
lowerneck -21.5585 -2.97331 -10.7134
upperneck 24.7077 -3.4338 10.1605
head 12.0798 -1.24067 5.10642
lclavicle 8.6582e-15 7.03848e-15 0
lhumerus -17.2331 -18.1784 87.3303
lradius 24.602 0 0
lwrist 0.991287 0 0
lhand -13.426 -24.0789 0
lfingers 7.12502 0 0
lthumb 12.6825 5.51594 0
rclavicle 8.6582e-15 7.03848e-15 0
rhumerus -46.0873 10.7611 -87.1431
rradius 37.8577 0 0
rwrist -18.0455 0 0
rhand -33.5829 -25.5954 0
rfingers 7.12502 0 0
rthumb -6.7766 -55.4499 0
